<?xml version="1.0" encoding="utf-8"?>
<!-- Generator: Adobe Illustrator 19.2.0, SVG Export Plug-In . SVG Version: 6.00 Build 0)  -->
<svg version="1.1" id="Layer_1" xmlns="http://www.w3.org/2000/svg" xmlns:xlink="http://www.w3.org/1999/xlink" x="0px" y="0px"
	 viewBox="0 0 20 20" style="enable-background:new 0 0 20 20;" xml:space="preserve">
<style type="text/css">
	.st0{fill:#010101;}
</style>
<path class="st0" d="M19.004,0.468H0.997c-0.548,0-0.996,0.448-0.996,0.996v17.538c0,0.548,0.448,0.996,0.996,0.996h6.564v-7.654
	H5.019V9.601h2.542V7.33c0-2.375,1.378-3.792,3.687-3.792c0.965,0,1.818,0.065,2.172,0.105v2.445l-1.459,0.001
	c-1.37,0-1.559,0.737-1.559,1.533v1.979h2.901l-0.354,2.745h-2.548V20h8.602c0.548,0,0.996-0.448,0.996-0.996V1.465
	C20,0.917,19.552,0.468,19.004,0.468z"/>
</svg>
