<?xml version="1.0" encoding="utf-8"?>
<!-- Generator: Adobe Illustrator 19.2.0, SVG Export Plug-In . SVG Version: 6.00 Build 0)  -->
<svg version="1.1" id="Layer_1" xmlns="http://www.w3.org/2000/svg" xmlns:xlink="http://www.w3.org/1999/xlink" x="0px" y="0px"
	 viewBox="0 0 24 20" style="enable-background:new 0 0 24 20;" xml:space="preserve">
<style type="text/css">
	.st0{fill:#231F20;}
</style>
<g>
	<polygon class="st0" points="14.823,16.244 16.429,16.244 16.429,12.849 19.824,12.849 19.824,11.243 16.429,11.243 16.429,7.848 
		14.823,7.848 14.823,11.243 11.428,11.243 11.428,12.849 14.823,12.849 	"/>
	<path class="st0" d="M23.015,3.799H9.973V1.245c0-0.39-0.312-0.721-0.702-0.721H0.966c-0.39,0-0.702,0.331-0.702,0.721v18.053
		c0,0.39,0.312,0.702,0.702,0.702h22.049c0.39,0,0.721-0.312,0.721-0.702V4.521C23.736,4.131,23.405,3.799,23.015,3.799z
		 M22.372,18.635H1.628V1.889h6.979v2.573c0,0.39,0.312,0.702,0.702,0.702h13.062V18.635z"/>
</g>
</svg>
