<?xml version="1.0" encoding="utf-8"?>
<!-- Generator: Adobe Illustrator 19.2.0, SVG Export Plug-In . SVG Version: 6.00 Build 0)  -->
<svg version="1.1" id="Layer_1" xmlns="http://www.w3.org/2000/svg" xmlns:xlink="http://www.w3.org/1999/xlink" x="0px" y="0px"
	 viewBox="0 0 22.991 20" style="enable-background:new 0 0 22.991 20;" xml:space="preserve">
<style type="text/css">
	.st0{fill:#010101;}
</style>
<g>
	<path class="st0" d="M22.991,3.529c-0.846,0.375-1.755,0.629-2.709,0.743c0.974-0.584,1.722-1.508,2.074-2.61
		c-0.911,0.541-1.921,0.933-2.995,1.145c-0.86-0.917-2.086-1.49-3.443-1.49c-2.605,0-4.717,2.112-4.717,4.717
		c0,0.37,0.042,0.73,0.122,1.075c-3.92-0.197-7.396-2.075-9.722-4.928C1.195,2.877,0.962,3.687,0.962,4.552
		c0,1.636,0.833,3.08,2.098,3.926c-0.773-0.025-1.5-0.237-2.136-0.59c0,0.02,0,0.039,0,0.059c0,2.285,1.626,4.192,3.784,4.625
		c-0.396,0.108-0.813,0.165-1.243,0.165c-0.304,0-0.599-0.03-0.887-0.085c0.6,1.874,2.342,3.238,4.406,3.276
		c-1.614,1.265-3.648,2.019-5.858,2.019c-0.381,0-0.756-0.022-1.125-0.066C2.088,19.219,4.568,20,7.232,20
		c8.676,0,13.421-7.187,13.421-13.421c0-0.204-0.005-0.408-0.014-0.61C21.559,5.305,22.359,4.474,22.991,3.529z"/>
</g>
</svg>
